<svg width="742" height="961" viewBox="0 0 742 961" fill="none" xmlns="http://www.w3.org/2000/svg">
<path fill-rule="evenodd" clip-rule="evenodd" d="M473.092 152.41C576.025 87.7936 690.197 -38.2107 801.218 11.2294C904.91 57.4058 847.422 226.897 882.677 334.808C912.668 426.608 1037.03 510.908 992.454 596.576C941.551 694.395 770.192 634.57 688.276 708.38C622.937 767.252 675.781 908.004 599.076 951.027C527.304 991.283 447.075 897.17 365.133 889.626C254.112 879.404 119.38 975.096 37.5782 899.329C-40.9363 826.606 26.4423 691.353 35.9755 584.749C43.387 501.871 26.4961 402.591 87.0977 345.583C149.016 287.336 257.572 342.827 333.589 304.783C396.44 273.329 413.566 189.777 473.092 152.41Z" fill="#0D300A" fill-opacity="0.05"/>
</svg>
