<svg width="749" height="849" viewBox="0 0 749 849" fill="none" xmlns="http://www.w3.org/2000/svg">
<path fill-rule="evenodd" clip-rule="evenodd" d="M472.58 13.2346C547.214 -18.8215 665.817 8.64119 701.307 81.6895C743.707 168.962 629.932 264.12 641.285 360.477C647.574 413.852 739.425 424.001 747.892 477.075C756.286 529.693 715.294 577.356 682.595 619.432C648.493 663.314 602.681 692.354 556.526 723.318C490.676 767.495 421.126 882.541 354.499 839.543C276.85 789.433 384.208 636.065 319.339 570.25C246.517 496.366 84.924 584.78 22.062 502.259C-29.5352 434.526 17.0833 313.864 82.57 259.436C150.943 202.609 267.648 283.119 342.83 235.659C416.921 188.887 392.07 47.8144 472.58 13.2346Z" fill="#0D300A" fill-opacity="0.1"/>
</svg>
