<svg width="8" height="68" viewBox="0 0 8 68" fill="none" xmlns="http://www.w3.org/2000/svg">
<path d="M3.64644 67.3536C3.84171 67.5488 4.15829 67.5488 4.35355 67.3536L7.53553 64.1716C7.73079 63.9763 7.73079 63.6597 7.53553 63.4645C7.34027 63.2692 7.02369 63.2692 6.82842 63.4645L4 66.2929L1.17157 63.4645C0.976308 63.2692 0.659725 63.2692 0.464463 63.4645C0.269201 63.6597 0.269201 63.9763 0.464463 64.1716L3.64644 67.3536ZM3.5 -2.28343e-08L3.5 0.985294L4.5 0.985294L4.5 2.28343e-08L3.5 -2.28343e-08ZM3.5 2.95588L3.5 4.92647L4.5 4.92647L4.5 2.95588L3.5 2.95588ZM3.5 6.89706L3.5 8.86765L4.5 8.86765L4.5 6.89706L3.5 6.89706ZM3.5 10.8382L3.5 12.8088L4.5 12.8088L4.5 10.8382L3.5 10.8382ZM3.5 14.7794L3.5 16.75L4.5 16.75L4.5 14.7794L3.5 14.7794ZM3.5 18.7206L3.5 20.6912L4.5 20.6912L4.5 18.7206L3.5 18.7206ZM3.5 22.6618L3.5 24.6324L4.5 24.6324L4.5 22.6618L3.5 22.6618ZM3.5 26.6029L3.5 28.5735L4.5 28.5735L4.5 26.6029L3.5 26.6029ZM3.5 30.5441L3.5 32.5147L4.5 32.5147L4.5 30.5441L3.5 30.5441ZM3.5 34.4853L3.5 36.4559L4.5 36.4559L4.5 34.4853L3.5 34.4853ZM3.5 38.4265L3.5 40.3971L4.5 40.3971L4.5 38.4265L3.5 38.4265ZM3.5 42.3677L3.5 44.3382L4.5 44.3382L4.5 42.3677L3.5 42.3677ZM3.5 46.3088L3.5 48.2794L4.5 48.2794L4.5 46.3088L3.5 46.3088ZM3.5 50.25L3.5 52.2206L4.5 52.2206L4.5 50.25L3.5 50.25ZM3.5 54.1912L3.5 56.1618L4.5 56.1618L4.5 54.1912L3.5 54.1912ZM3.5 58.1324L3.5 60.103L4.5 60.103L4.5 58.1324L3.5 58.1324ZM3.5 62.0735L3.5 64.0441L4.5 64.0441L4.5 62.0735L3.5 62.0735ZM3.5 66.0147L3.5 67L4.5 67L4.5 66.0147L3.5 66.0147ZM3.64644 67.3536C3.84171 67.5488 4.15829 67.5488 4.35355 67.3536L7.53553 64.1716C7.73079 63.9763 7.73079 63.6597 7.53553 63.4645C7.34027 63.2692 7.02369 63.2692 6.82842 63.4645L4 66.2929L1.17157 63.4645C0.976308 63.2692 0.659725 63.2692 0.464463 63.4645C0.269201 63.6597 0.269201 63.9763 0.464463 64.1716L3.64644 67.3536ZM3.5 -2.28343e-08L3.5 0.985294L4.5 0.985294L4.5 2.28343e-08L3.5 -2.28343e-08ZM3.5 2.95588L3.5 4.92647L4.5 4.92647L4.5 2.95588L3.5 2.95588ZM3.5 6.89706L3.5 8.86765L4.5 8.86765L4.5 6.89706L3.5 6.89706ZM3.5 10.8382L3.5 12.8088L4.5 12.8088L4.5 10.8382L3.5 10.8382ZM3.5 14.7794L3.5 16.75L4.5 16.75L4.5 14.7794L3.5 14.7794ZM3.5 18.7206L3.5 20.6912L4.5 20.6912L4.5 18.7206L3.5 18.7206ZM3.5 22.6618L3.5 24.6324L4.5 24.6324L4.5 22.6618L3.5 22.6618ZM3.5 26.6029L3.5 28.5735L4.5 28.5735L4.5 26.6029L3.5 26.6029ZM3.5 30.5441L3.5 32.5147L4.5 32.5147L4.5 30.5441L3.5 30.5441ZM3.5 34.4853L3.5 36.4559L4.5 36.4559L4.5 34.4853L3.5 34.4853ZM3.5 38.4265L3.5 40.3971L4.5 40.3971L4.5 38.4265L3.5 38.4265ZM3.5 42.3677L3.5 44.3382L4.5 44.3382L4.5 42.3677L3.5 42.3677ZM3.5 46.3088L3.5 48.2794L4.5 48.2794L4.5 46.3088L3.5 46.3088ZM3.5 50.25L3.5 52.2206L4.5 52.2206L4.5 50.25L3.5 50.25ZM3.5 54.1912L3.5 56.1618L4.5 56.1618L4.5 54.1912L3.5 54.1912ZM3.5 58.1324L3.5 60.103L4.5 60.103L4.5 58.1324L3.5 58.1324ZM3.5 62.0735L3.5 64.0441L4.5 64.0441L4.5 62.0735L3.5 62.0735ZM3.5 66.0147L3.5 67L4.5 67L4.5 66.0147L3.5 66.0147Z" fill="#0D300A" fill-opacity="0.61"/>
</svg>
