<svg width="85" height="75" viewBox="0 0 85 75" fill="none" xmlns="http://www.w3.org/2000/svg">
<path d="M4.35355 74.3536C4.15829 74.5488 3.84171 74.5488 3.64645 74.3536L0.464462 71.1716C0.269203 70.9763 0.269203 70.6597 0.464462 70.4645C0.659729 70.2692 0.976311 70.2692 1.17157 70.4645L4 73.2929L6.82843 70.4645C7.02369 70.2692 7.34027 70.2692 7.53554 70.4645C7.7308 70.6597 7.7308 70.9763 7.53554 71.1716L4.35355 74.3536ZM85 1.5L83.975 1.5V0.5L85 0.5V1.5ZM81.925 1.5L79.875 1.5V0.5L81.925 0.5V1.5ZM77.825 1.5L75.775 1.5V0.5L77.825 0.5V1.5ZM73.725 1.5L71.675 1.5V0.5L73.725 0.5V1.5ZM69.625 1.5L67.575 1.5V0.5L69.625 0.5V1.5ZM65.525 1.5L63.475 1.5V0.5L65.525 0.5V1.5ZM61.425 1.5L59.375 1.5V0.5L61.425 0.5V1.5ZM57.325 1.5L55.275 1.5V0.5L57.325 0.5V1.5ZM53.225 1.5L51.175 1.5V0.5L53.225 0.5V1.5ZM49.125 1.5L47.075 1.5V0.5L49.125 0.5V1.5ZM45.025 1.5L44 1.5V0.5L45.025 0.5V1.5ZM44 1.5C43.6749 1.5 43.3506 1.50393 43.0274 1.51174L43.0032 0.512029C43.3345 0.504025 43.6668 0.5 44 0.5V1.5ZM41.0907 1.60549C40.443 1.65264 39.7996 1.7154 39.161 1.79339L39.0398 0.800768C39.6945 0.720799 40.3541 0.656459 41.0181 0.60813L41.0907 1.60549ZM37.2429 2.07561C36.6036 2.1858 35.9696 2.31136 35.3412 2.45189L35.1229 1.47599C35.7673 1.33188 36.4175 1.20313 37.0731 1.09014L37.2429 2.07561ZM33.4603 2.92161C32.8355 3.09416 32.2169 3.28168 31.605 3.48375L31.2914 2.53418C31.919 2.32695 32.5534 2.13464 33.1941 1.95769L33.4603 2.92161ZM29.7797 4.13698C29.1754 4.37023 28.5783 4.61792 27.9888 4.87962L27.5831 3.96564C28.1876 3.69728 28.7999 3.44327 29.4195 3.20407L29.7797 4.13698ZM26.2367 5.70975C25.6588 6.00126 25.0889 6.30655 24.5276 6.62519L24.0339 5.75556C24.6095 5.42884 25.1938 5.1158 25.7864 4.81689L26.2367 5.70975ZM22.8655 7.62355C22.3192 7.9702 21.782 8.32991 21.2543 8.70223L20.6778 7.88514C21.2188 7.50342 21.7696 7.13462 22.3297 6.77919L22.8655 7.62355ZM19.6978 9.8585C19.1882 10.2567 18.6887 10.6672 18.1996 11.0895L17.5461 10.3325C18.0475 9.89964 18.5596 9.47884 19.082 9.07057L19.6978 9.8585ZM16.7632 12.3921C16.2951 12.8379 15.8379 13.2951 15.3921 13.7632L14.6679 13.0736C15.125 12.5937 15.5937 12.125 16.0736 11.6679L16.7632 12.3921ZM14.0895 15.1996C13.6672 15.6887 13.2567 16.1882 12.8585 16.6978L12.0706 16.082C12.4788 15.5596 12.8996 15.0475 13.3325 14.5461L14.0895 15.1996ZM11.7022 18.2543C11.3299 18.782 10.9702 19.3192 10.6236 19.8655L9.7792 19.3297C10.1346 18.7696 10.5034 18.2188 10.8851 17.6778L11.7022 18.2543ZM9.6252 21.5276C9.30655 22.0889 9.00126 22.6588 8.70975 23.2367L7.81689 22.7864C8.1158 22.1938 8.42884 21.6094 8.75556 21.0339L9.6252 21.5276ZM7.87962 24.9888C7.61792 25.5783 7.37023 26.1754 7.13698 26.7796L6.20407 26.4195C6.44328 25.7999 6.69728 25.1876 6.96564 24.583L7.87962 24.9888ZM6.48375 28.6049C6.28168 29.2169 6.09416 29.8355 5.92161 30.4603L4.95769 30.1941C5.13464 29.5533 5.32695 28.919 5.53418 28.2914L6.48375 28.6049ZM5.45189 32.3412C5.31136 32.9696 5.1858 33.6036 5.07561 34.2429L4.09013 34.0731C4.20313 33.4175 4.33189 32.7673 4.476 32.1229L5.45189 32.3412ZM4.7934 36.161C4.71539 36.7996 4.65263 37.443 4.60549 38.0907L3.60813 38.0181C3.65646 37.3541 3.7208 36.6945 3.80077 36.0398L4.7934 36.161ZM4.51173 40.0274C4.50393 40.3506 4.5 40.6749 4.5 41H3.5C3.5 40.6668 3.50403 40.3345 3.51203 40.0032L4.51173 40.0274ZM4.5 41V42.0312H3.5V41H4.5ZM4.5 44.0937V46.1562H3.5V44.0937H4.5ZM4.5 48.2187V50.2812H3.5V48.2187H4.5ZM4.5 52.3437V54.4062H3.5V52.3437H4.5ZM4.5 56.4687V58.5313H3.5V56.4687H4.5ZM4.5 60.5938V62.6563H3.5V60.5938H4.5ZM4.5 64.7188V66.7813H3.5V64.7188H4.5ZM4.5 68.8438V70.9063H3.5V68.8438H4.5ZM4.5 72.9688V74H3.5V72.9688H4.5ZM4.35355 74.3536C4.15829 74.5488 3.84171 74.5488 3.64645 74.3536L0.464462 71.1716C0.269203 70.9763 0.269203 70.6597 0.464462 70.4645C0.659729 70.2692 0.976311 70.2692 1.17157 70.4645L4 73.2929L6.82843 70.4645C7.02369 70.2692 7.34027 70.2692 7.53554 70.4645C7.7308 70.6597 7.7308 70.9763 7.53554 71.1716L4.35355 74.3536ZM85 1.5L83.975 1.5V0.5L85 0.5V1.5ZM81.925 1.5L79.875 1.5V0.5L81.925 0.5V1.5ZM77.825 1.5L75.775 1.5V0.5L77.825 0.5V1.5ZM73.725 1.5L71.675 1.5V0.5L73.725 0.5V1.5ZM69.625 1.5L67.575 1.5V0.5L69.625 0.5V1.5ZM65.525 1.5L63.475 1.5V0.5L65.525 0.5V1.5ZM61.425 1.5L59.375 1.5V0.5L61.425 0.5V1.5ZM57.325 1.5L55.275 1.5V0.5L57.325 0.5V1.5ZM53.225 1.5L51.175 1.5V0.5L53.225 0.5V1.5ZM49.125 1.5L47.075 1.5V0.5L49.125 0.5V1.5ZM45.025 1.5L44 1.5V0.5L45.025 0.5V1.5ZM44 1.5C43.6749 1.5 43.3506 1.50393 43.0274 1.51174L43.0032 0.512029C43.3345 0.504025 43.6668 0.5 44 0.5V1.5ZM41.0907 1.60549C40.443 1.65264 39.7996 1.7154 39.161 1.79339L39.0398 0.800768C39.6945 0.720799 40.3541 0.656459 41.0181 0.60813L41.0907 1.60549ZM37.2429 2.07561C36.6036 2.1858 35.9696 2.31136 35.3412 2.45189L35.1229 1.47599C35.7673 1.33188 36.4175 1.20313 37.0731 1.09014L37.2429 2.07561ZM33.4603 2.92161C32.8355 3.09416 32.2169 3.28168 31.605 3.48375L31.2914 2.53418C31.919 2.32695 32.5534 2.13464 33.1941 1.95769L33.4603 2.92161ZM29.7797 4.13698C29.1754 4.37023 28.5783 4.61792 27.9888 4.87962L27.5831 3.96564C28.1876 3.69728 28.7999 3.44327 29.4195 3.20407L29.7797 4.13698ZM26.2367 5.70975C25.6588 6.00126 25.0889 6.30655 24.5276 6.62519L24.0339 5.75556C24.6095 5.42884 25.1938 5.1158 25.7864 4.81689L26.2367 5.70975ZM22.8655 7.62355C22.3192 7.9702 21.782 8.32991 21.2543 8.70223L20.6778 7.88514C21.2188 7.50342 21.7696 7.13462 22.3297 6.77919L22.8655 7.62355ZM19.6978 9.8585C19.1882 10.2567 18.6887 10.6672 18.1996 11.0895L17.5461 10.3325C18.0475 9.89964 18.5596 9.47884 19.082 9.07057L19.6978 9.8585ZM16.7632 12.3921C16.2951 12.8379 15.8379 13.2951 15.3921 13.7632L14.6679 13.0736C15.125 12.5937 15.5937 12.125 16.0736 11.6679L16.7632 12.3921ZM14.0895 15.1996C13.6672 15.6887 13.2567 16.1882 12.8585 16.6978L12.0706 16.082C12.4788 15.5596 12.8996 15.0475 13.3325 14.5461L14.0895 15.1996ZM11.7022 18.2543C11.3299 18.782 10.9702 19.3192 10.6236 19.8655L9.7792 19.3297C10.1346 18.7696 10.5034 18.2188 10.8851 17.6778L11.7022 18.2543ZM9.6252 21.5276C9.30655 22.0889 9.00126 22.6588 8.70975 23.2367L7.81689 22.7864C8.1158 22.1938 8.42884 21.6094 8.75556 21.0339L9.6252 21.5276ZM7.87962 24.9888C7.61792 25.5783 7.37023 26.1754 7.13698 26.7796L6.20407 26.4195C6.44328 25.7999 6.69728 25.1876 6.96564 24.583L7.87962 24.9888ZM6.48375 28.6049C6.28168 29.2169 6.09416 29.8355 5.92161 30.4603L4.95769 30.1941C5.13464 29.5533 5.32695 28.919 5.53418 28.2914L6.48375 28.6049ZM5.45189 32.3412C5.31136 32.9696 5.1858 33.6036 5.07561 34.2429L4.09013 34.0731C4.20313 33.4175 4.33189 32.7673 4.476 32.1229L5.45189 32.3412ZM4.7934 36.161C4.71539 36.7996 4.65263 37.443 4.60549 38.0907L3.60813 38.0181C3.65646 37.3541 3.7208 36.6945 3.80077 36.0398L4.7934 36.161ZM4.51173 40.0274C4.50393 40.3506 4.5 40.6749 4.5 41H3.5C3.5 40.6668 3.50403 40.3345 3.51203 40.0032L4.51173 40.0274ZM4.5 41V42.0312H3.5V41H4.5ZM4.5 44.0937V46.1562H3.5V44.0937H4.5ZM4.5 48.2187V50.2812H3.5V48.2187H4.5ZM4.5 52.3437V54.4062H3.5V52.3437H4.5ZM4.5 56.4687V58.5313H3.5V56.4687H4.5ZM4.5 60.5938V62.6563H3.5V60.5938H4.5ZM4.5 64.7188V66.7813H3.5V64.7188H4.5ZM4.5 68.8438V70.9063H3.5V68.8438H4.5ZM4.5 72.9688V74H3.5V72.9688H4.5Z" fill="#0D300A" fill-opacity="0.61"/>
</svg>
