<svg width="71" height="8" viewBox="0 0 71 8" fill="none" xmlns="http://www.w3.org/2000/svg">
<path d="M0.646446 3.64645C0.451187 3.84171 0.451187 4.15829 0.646446 4.35355L3.82843 7.53553C4.02369 7.7308 4.34027 7.7308 4.53554 7.53553C4.7308 7.34027 4.7308 7.02369 4.53554 6.82843L1.70711 4L4.53554 1.17157C4.7308 0.976311 4.7308 0.659728 4.53554 0.464466C4.34027 0.269204 4.02369 0.269204 3.82843 0.464466L0.646446 3.64645ZM71 3.5L70.0278 3.5V4.5H71V3.5ZM68.0833 3.5L66.1389 3.5V4.5L68.0833 4.5V3.5ZM64.1944 3.5L62.25 3.5V4.5L64.1944 4.5V3.5ZM60.3056 3.5L58.3611 3.5V4.5L60.3056 4.5V3.5ZM56.4167 3.5L54.4722 3.5V4.5L56.4167 4.5V3.5ZM52.5278 3.5L50.5833 3.5V4.5H52.5278V3.5ZM48.6389 3.5L46.6944 3.5V4.5L48.6389 4.5V3.5ZM44.75 3.5L42.8056 3.5V4.5H44.75V3.5ZM40.8611 3.5L38.9167 3.5V4.5L40.8611 4.5V3.5ZM36.9722 3.5L35.0278 3.5V4.5L36.9722 4.5V3.5ZM33.0833 3.5L31.1389 3.5V4.5H33.0833V3.5ZM29.1945 3.5L27.25 3.5V4.5L29.1945 4.5V3.5ZM25.3056 3.5L23.3611 3.5V4.5H25.3056V3.5ZM21.4167 3.5L19.4722 3.5V4.5L21.4167 4.5V3.5ZM17.5278 3.5L15.5834 3.5V4.5L17.5278 4.5V3.5ZM13.6389 3.5L11.6945 3.5V4.5L13.6389 4.5V3.5ZM9.75002 3.5L7.80558 3.5V4.5L9.75002 4.5V3.5ZM5.86114 3.5L3.91669 3.5V4.5H5.86114V3.5ZM1.97225 3.5L1 3.5V4.5H1.97225V3.5ZM0.646446 3.64645C0.451187 3.84171 0.451187 4.15829 0.646446 4.35355L3.82843 7.53553C4.02369 7.7308 4.34027 7.7308 4.53554 7.53553C4.7308 7.34027 4.7308 7.02369 4.53554 6.82843L1.70711 4L4.53554 1.17157C4.7308 0.976311 4.7308 0.659728 4.53554 0.464466C4.34027 0.269204 4.02369 0.269204 3.82843 0.464466L0.646446 3.64645ZM71 3.5L70.0278 3.5V4.5H71V3.5ZM68.0833 3.5L66.1389 3.5V4.5L68.0833 4.5V3.5ZM64.1944 3.5L62.25 3.5V4.5L64.1944 4.5V3.5ZM60.3056 3.5L58.3611 3.5V4.5L60.3056 4.5V3.5ZM56.4167 3.5L54.4722 3.5V4.5L56.4167 4.5V3.5ZM52.5278 3.5L50.5833 3.5V4.5H52.5278V3.5ZM48.6389 3.5L46.6944 3.5V4.5L48.6389 4.5V3.5ZM44.75 3.5L42.8056 3.5V4.5H44.75V3.5ZM40.8611 3.5L38.9167 3.5V4.5L40.8611 4.5V3.5ZM36.9722 3.5L35.0278 3.5V4.5L36.9722 4.5V3.5ZM33.0833 3.5L31.1389 3.5V4.5H33.0833V3.5ZM29.1945 3.5L27.25 3.5V4.5L29.1945 4.5V3.5ZM25.3056 3.5L23.3611 3.5V4.5H25.3056V3.5ZM21.4167 3.5L19.4722 3.5V4.5L21.4167 4.5V3.5ZM17.5278 3.5L15.5834 3.5V4.5L17.5278 4.5V3.5ZM13.6389 3.5L11.6945 3.5V4.5L13.6389 4.5V3.5ZM9.75002 3.5L7.80558 3.5V4.5L9.75002 4.5V3.5ZM5.86114 3.5L3.91669 3.5V4.5H5.86114V3.5ZM1.97225 3.5L1 3.5V4.5H1.97225V3.5Z" fill="#0D300A" fill-opacity="0.61"/>
</svg>
