<svg width="71" height="8" viewBox="0 0 71 8" fill="none" xmlns="http://www.w3.org/2000/svg">
<path d="M70.3536 4.35355C70.5488 4.15829 70.5488 3.84171 70.3536 3.64645L67.1716 0.464466C66.9763 0.269204 66.6597 0.269204 66.4645 0.464466C66.2692 0.659728 66.2692 0.976311 66.4645 1.17157L69.2929 4L66.4645 6.82843C66.2692 7.02369 66.2692 7.34027 66.4645 7.53553C66.6597 7.7308 66.9763 7.7308 67.1716 7.53553L70.3536 4.35355ZM0 4.5H0.972222L0.972222 3.5H0L0 4.5ZM2.91667 4.5H4.86111V3.5L2.91667 3.5V4.5ZM6.80556 4.5H8.75V3.5L6.80556 3.5V4.5ZM10.6944 4.5L12.6389 4.5V3.5L10.6944 3.5V4.5ZM14.5833 4.5L16.5278 4.5V3.5L14.5833 3.5V4.5ZM18.4722 4.5L20.4167 4.5V3.5L18.4722 3.5V4.5ZM22.3611 4.5L24.3056 4.5V3.5L22.3611 3.5V4.5ZM26.25 4.5L28.1944 4.5V3.5L26.25 3.5V4.5ZM30.1389 4.5L32.0833 4.5V3.5L30.1389 3.5V4.5ZM34.0278 4.5L35.9722 4.5V3.5L34.0278 3.5V4.5ZM37.9167 4.5L39.8611 4.5V3.5L37.9167 3.5V4.5ZM41.8055 4.5H43.75V3.5L41.8055 3.5V4.5ZM45.6944 4.5H47.6389V3.5L45.6944 3.5V4.5ZM49.5833 4.5H51.5278V3.5L49.5833 3.5V4.5ZM53.4722 4.5H55.4166V3.5H53.4722V4.5ZM57.3611 4.5H59.3055V3.5L57.3611 3.5V4.5ZM61.25 4.5H63.1944V3.5L61.25 3.5V4.5ZM65.1389 4.5H67.0833V3.5L65.1389 3.5V4.5ZM69.0277 4.5H70V3.5H69.0277V4.5ZM70.3536 4.35355C70.5488 4.15829 70.5488 3.84171 70.3536 3.64645L67.1716 0.464466C66.9763 0.269204 66.6597 0.269204 66.4645 0.464466C66.2692 0.659728 66.2692 0.976311 66.4645 1.17157L69.2929 4L66.4645 6.82843C66.2692 7.02369 66.2692 7.34027 66.4645 7.53553C66.6597 7.7308 66.9763 7.7308 67.1716 7.53553L70.3536 4.35355ZM0 4.5H0.972222L0.972222 3.5H0L0 4.5ZM2.91667 4.5H4.86111V3.5L2.91667 3.5V4.5ZM6.80556 4.5H8.75V3.5L6.80556 3.5V4.5ZM10.6944 4.5L12.6389 4.5V3.5L10.6944 3.5V4.5ZM14.5833 4.5L16.5278 4.5V3.5L14.5833 3.5V4.5ZM18.4722 4.5L20.4167 4.5V3.5L18.4722 3.5V4.5ZM22.3611 4.5L24.3056 4.5V3.5L22.3611 3.5V4.5ZM26.25 4.5L28.1944 4.5V3.5L26.25 3.5V4.5ZM30.1389 4.5L32.0833 4.5V3.5L30.1389 3.5V4.5ZM34.0278 4.5L35.9722 4.5V3.5L34.0278 3.5V4.5ZM37.9167 4.5L39.8611 4.5V3.5L37.9167 3.5V4.5ZM41.8055 4.5H43.75V3.5L41.8055 3.5V4.5ZM45.6944 4.5H47.6389V3.5L45.6944 3.5V4.5ZM49.5833 4.5H51.5278V3.5L49.5833 3.5V4.5ZM53.4722 4.5H55.4166V3.5H53.4722V4.5ZM57.3611 4.5H59.3055V3.5L57.3611 3.5V4.5ZM61.25 4.5H63.1944V3.5L61.25 3.5V4.5ZM65.1389 4.5H67.0833V3.5L65.1389 3.5V4.5ZM69.0277 4.5H70V3.5H69.0277V4.5Z" fill="#0D300A" fill-opacity="0.61"/>
</svg>
