<svg width="85" height="68" viewBox="0 0 85 68" fill="none" xmlns="http://www.w3.org/2000/svg">
<path d="M80.6464 67.3536C80.8417 67.5488 81.1583 67.5488 81.3536 67.3536L84.5355 64.1716C84.7308 63.9763 84.7308 63.6597 84.5355 63.4645C84.3403 63.2692 84.0237 63.2692 83.8284 63.4645L81 66.2929L78.1716 63.4645C77.9763 63.2692 77.6597 63.2692 77.4645 63.4645C77.2692 63.6597 77.2692 63.9763 77.4645 64.1716L80.6464 67.3536ZM0 1.5L1.025 1.5L1.025 0.5L0 0.5L0 1.5ZM3.075 1.5L5.125 1.5V0.5L3.075 0.5V1.5ZM7.175 1.5L9.225 1.5V0.5L7.175 0.5V1.5ZM11.275 1.5L13.325 1.5V0.5L11.275 0.5V1.5ZM15.375 1.5L17.425 1.5V0.5L15.375 0.5V1.5ZM19.475 1.5L21.525 1.5V0.5L19.475 0.5V1.5ZM23.575 1.5L25.625 1.5V0.5L23.575 0.5V1.5ZM27.675 1.5L29.725 1.5V0.5L27.675 0.5V1.5ZM31.775 1.5L33.825 1.5V0.5L31.775 0.5V1.5ZM35.875 1.5L37.925 1.5V0.5L35.875 0.5V1.5ZM39.975 1.5L41 1.5V0.5L39.975 0.5V1.5ZM41 1.5C41.3251 1.5 41.6494 1.50393 41.9726 1.51174L41.9968 0.512029C41.6655 0.504025 41.3332 0.5 41 0.5V1.5ZM43.9093 1.60549C44.557 1.65264 45.2004 1.7154 45.839 1.79339L45.9602 0.800769C45.3055 0.720799 44.6459 0.656459 43.9819 0.60813L43.9093 1.60549ZM47.7571 2.07561C48.3964 2.1858 49.0304 2.31136 49.6588 2.45189L49.8771 1.47599C49.2327 1.33188 48.5825 1.20313 47.9269 1.09014L47.7571 2.07561ZM51.5397 2.92161C52.1645 3.09416 52.7831 3.28168 53.395 3.48375L53.7086 2.53418C53.081 2.32695 52.4466 2.13464 51.8059 1.95769L51.5397 2.92161ZM55.2204 4.13698C55.8246 4.37023 56.4217 4.61792 57.0112 4.87962L57.4169 3.96564C56.8124 3.69728 56.2001 3.44328 55.5805 3.20407L55.2204 4.13698ZM58.7633 5.70976C59.3412 6.00126 59.9111 6.30655 60.4724 6.6252L60.9661 5.75556C60.3906 5.42884 59.8062 5.1158 59.2136 4.81689L58.7633 5.70976ZM62.1345 7.62355C62.6808 7.97021 63.218 8.32991 63.7457 8.70223L64.3222 7.88514C63.7812 7.50342 63.2304 7.13462 62.6703 6.7792L62.1345 7.62355ZM65.3022 9.8585C65.8118 10.2567 66.3113 10.6672 66.8004 11.0895L67.4539 10.3325C66.9525 9.89964 66.4404 9.47884 65.918 9.07057L65.3022 9.8585ZM68.2368 12.3921C68.7049 12.8379 69.1621 13.2951 69.6079 13.7632L70.3321 13.0736C69.875 12.5937 69.4063 12.125 68.9264 11.6679L68.2368 12.3921ZM70.9105 15.1996C71.3328 15.6887 71.7433 16.1882 72.1415 16.6978L72.9294 16.082C72.5212 15.5596 72.1004 15.0475 71.6675 14.5461L70.9105 15.1996ZM73.2978 18.2543C73.6701 18.782 74.0298 19.3192 74.3765 19.8655L75.2208 19.3297C74.8654 18.7696 74.4966 18.2188 74.1149 17.6778L73.2978 18.2543ZM75.3748 21.5276C75.6935 22.0889 75.9987 22.6588 76.2902 23.2367L77.1831 22.7864C76.8842 22.1938 76.5712 21.6094 76.2444 21.0339L75.3748 21.5276ZM77.1204 24.9888C77.3821 25.5783 77.6298 26.1754 77.863 26.7796L78.7959 26.4195C78.5567 25.7999 78.3027 25.1876 78.0344 24.5831L77.1204 24.9888ZM78.5163 28.605C78.7183 29.2169 78.9058 29.8355 79.0784 30.4603L80.0423 30.1941C79.8654 29.5534 79.673 28.919 79.4658 28.2914L78.5163 28.605ZM79.5481 32.3412C79.6886 32.9696 79.8142 33.6036 79.9244 34.2429L80.9099 34.0731C80.7969 33.4175 80.6681 32.7673 80.524 32.1229L79.5481 32.3412ZM80.2066 36.161C80.2846 36.7996 80.3474 37.443 80.3945 38.0907L81.3919 38.0181C81.3435 37.3541 81.2792 36.6945 81.1992 36.0398L80.2066 36.161ZM80.4883 40.0274C80.4961 40.3506 80.5 40.6749 80.5 41H81.5C81.5 40.6668 81.496 40.3345 81.488 40.0032L80.4883 40.0274ZM80.5 41V41.9286H81.5V41H80.5ZM80.5 43.7857V45.6429H81.5V43.7857H80.5ZM80.5 47.5V49.3571H81.5V47.5H80.5ZM80.5 51.2143V53.0714H81.5V51.2143H80.5ZM80.5 54.9286V56.7857H81.5V54.9286H80.5ZM80.5 58.6429V60.5H81.5V58.6429H80.5ZM80.5 62.3571V64.2143H81.5V62.3571H80.5ZM80.5 66.0714V67H81.5V66.0714H80.5ZM80.6464 67.3536C80.8417 67.5488 81.1583 67.5488 81.3536 67.3536L84.5355 64.1716C84.7308 63.9763 84.7308 63.6597 84.5355 63.4645C84.3403 63.2692 84.0237 63.2692 83.8284 63.4645L81 66.2929L78.1716 63.4645C77.9763 63.2692 77.6597 63.2692 77.4645 63.4645C77.2692 63.6597 77.2692 63.9763 77.4645 64.1716L80.6464 67.3536ZM0 1.5L1.025 1.5L1.025 0.5L0 0.5L0 1.5ZM3.075 1.5L5.125 1.5V0.5L3.075 0.5V1.5ZM7.175 1.5L9.225 1.5V0.5L7.175 0.5V1.5ZM11.275 1.5L13.325 1.5V0.5L11.275 0.5V1.5ZM15.375 1.5L17.425 1.5V0.5L15.375 0.5V1.5ZM19.475 1.5L21.525 1.5V0.5L19.475 0.5V1.5ZM23.575 1.5L25.625 1.5V0.5L23.575 0.5V1.5ZM27.675 1.5L29.725 1.5V0.5L27.675 0.5V1.5ZM31.775 1.5L33.825 1.5V0.5L31.775 0.5V1.5ZM35.875 1.5L37.925 1.5V0.5L35.875 0.5V1.5ZM39.975 1.5L41 1.5V0.5L39.975 0.5V1.5ZM41 1.5C41.3251 1.5 41.6494 1.50393 41.9726 1.51174L41.9968 0.512029C41.6655 0.504025 41.3332 0.5 41 0.5V1.5ZM43.9093 1.60549C44.557 1.65264 45.2004 1.7154 45.839 1.79339L45.9602 0.800769C45.3055 0.720799 44.6459 0.656459 43.9819 0.60813L43.9093 1.60549ZM47.7571 2.07561C48.3964 2.1858 49.0304 2.31136 49.6588 2.45189L49.8771 1.47599C49.2327 1.33188 48.5825 1.20313 47.9269 1.09014L47.7571 2.07561ZM51.5397 2.92161C52.1645 3.09416 52.7831 3.28168 53.395 3.48375L53.7086 2.53418C53.081 2.32695 52.4466 2.13464 51.8059 1.95769L51.5397 2.92161ZM55.2204 4.13698C55.8246 4.37023 56.4217 4.61792 57.0112 4.87962L57.4169 3.96564C56.8124 3.69728 56.2001 3.44328 55.5805 3.20407L55.2204 4.13698ZM58.7633 5.70976C59.3412 6.00126 59.9111 6.30655 60.4724 6.6252L60.9661 5.75556C60.3906 5.42884 59.8062 5.1158 59.2136 4.81689L58.7633 5.70976ZM62.1345 7.62355C62.6808 7.97021 63.218 8.32991 63.7457 8.70223L64.3222 7.88514C63.7812 7.50342 63.2304 7.13462 62.6703 6.7792L62.1345 7.62355ZM65.3022 9.8585C65.8118 10.2567 66.3113 10.6672 66.8004 11.0895L67.4539 10.3325C66.9525 9.89964 66.4404 9.47884 65.918 9.07057L65.3022 9.8585ZM68.2368 12.3921C68.7049 12.8379 69.1621 13.2951 69.6079 13.7632L70.3321 13.0736C69.875 12.5937 69.4063 12.125 68.9264 11.6679L68.2368 12.3921ZM70.9105 15.1996C71.3328 15.6887 71.7433 16.1882 72.1415 16.6978L72.9294 16.082C72.5212 15.5596 72.1004 15.0475 71.6675 14.5461L70.9105 15.1996ZM73.2978 18.2543C73.6701 18.782 74.0298 19.3192 74.3765 19.8655L75.2208 19.3297C74.8654 18.7696 74.4966 18.2188 74.1149 17.6778L73.2978 18.2543ZM75.3748 21.5276C75.6935 22.0889 75.9987 22.6588 76.2902 23.2367L77.1831 22.7864C76.8842 22.1938 76.5712 21.6094 76.2444 21.0339L75.3748 21.5276ZM77.1204 24.9888C77.3821 25.5783 77.6298 26.1754 77.863 26.7796L78.7959 26.4195C78.5567 25.7999 78.3027 25.1876 78.0344 24.5831L77.1204 24.9888ZM78.5163 28.605C78.7183 29.2169 78.9058 29.8355 79.0784 30.4603L80.0423 30.1941C79.8654 29.5534 79.673 28.919 79.4658 28.2914L78.5163 28.605ZM79.5481 32.3412C79.6886 32.9696 79.8142 33.6036 79.9244 34.2429L80.9099 34.0731C80.7969 33.4175 80.6681 32.7673 80.524 32.1229L79.5481 32.3412ZM80.2066 36.161C80.2846 36.7996 80.3474 37.443 80.3945 38.0907L81.3919 38.0181C81.3435 37.3541 81.2792 36.6945 81.1992 36.0398L80.2066 36.161ZM80.4883 40.0274C80.4961 40.3506 80.5 40.6749 80.5 41H81.5C81.5 40.6668 81.496 40.3345 81.488 40.0032L80.4883 40.0274ZM80.5 41V41.9286H81.5V41H80.5ZM80.5 43.7857V45.6429H81.5V43.7857H80.5ZM80.5 47.5V49.3571H81.5V47.5H80.5ZM80.5 51.2143V53.0714H81.5V51.2143H80.5ZM80.5 54.9286V56.7857H81.5V54.9286H80.5ZM80.5 58.6429V60.5H81.5V58.6429H80.5ZM80.5 62.3571V64.2143H81.5V62.3571H80.5ZM80.5 66.0714V67H81.5V66.0714H80.5Z" fill="#0D300A" fill-opacity="0.61"/>
</svg>
